<svg width="48" height="48" viewBox="0 0 48 48" fill="none" xmlns="http://www.w3.org/2000/svg">
<rect width="48" height="48" rx="8" fill="#F2F0E8"/>
<g clip-path="url(#clip0_117_1235)">
<path fill-rule="evenodd" clip-rule="evenodd" d="M33 16.5H15C14.5858 16.5 14.25 16.8358 14.25 17.25V30C14.25 30.8284 14.9216 31.5 15.75 31.5H32.25C33.0784 31.5 33.75 30.8284 33.75 30V17.25C33.75 16.8358 33.4142 16.5 33 16.5ZM24 24.4828L16.9284 18H31.0716L24 24.4828ZM21.2541 24L15.75 29.0447V18.9553L21.2541 24ZM22.3641 25.0172L23.4891 26.0531C23.7759 26.3165 24.2166 26.3165 24.5034 26.0531L25.6284 25.0172L31.0659 30H16.9284L22.3641 25.0172ZM26.7459 24L32.25 18.9544V29.0456L26.7459 24Z" fill="#1A170F"/>
</g>
<defs>
<clipPath id="clip0_117_1235">
<rect width="24" height="24" fill="white" transform="translate(12 12)"/>
</clipPath>
</defs>
</svg>
