<svg width="40" height="40" viewBox="0 0 40 40" fill="none" xmlns="http://www.w3.org/2000/svg">
<rect width="40" height="40" rx="8" fill="#F2EDE8"/>
<g clip-path="url(#clip0_148_1740)">
<path fill-rule="evenodd" clip-rule="evenodd" d="M29 20C29 20.4142 28.6642 20.75 28.25 20.75H13.5603L19.0306 26.2194C19.3237 26.5124 19.3237 26.9876 19.0306 27.2806C18.7376 27.5737 18.2624 27.5737 17.9694 27.2806L11.2194 20.5306C11.0785 20.3899 10.9994 20.1991 10.9994 20C10.9994 19.8009 11.0785 19.6101 11.2194 19.4694L17.9694 12.7194C18.2624 12.4263 18.7376 12.4263 19.0306 12.7194C19.3237 13.0124 19.3237 13.4876 19.0306 13.7806L13.5603 19.25H28.25C28.6642 19.25 29 19.5858 29 20Z" fill="#1C120D"/>
</g>
<defs>
<clipPath id="clip0_148_1740">
<rect width="24" height="24" fill="white" transform="translate(8 8)"/>
</clipPath>
</defs>
</svg>
