<svg width="48" height="48" viewBox="0 0 48 48" fill="none" xmlns="http://www.w3.org/2000/svg">
<rect width="48" height="48" rx="8" fill="#F2F0E8"/>
<g clip-path="url(#clip0_117_1245)">
<path fill-rule="evenodd" clip-rule="evenodd" d="M32.8472 26.8556L28.4306 24.8766L28.4184 24.8709C27.9526 24.6717 27.4177 24.7211 26.9963 25.0022C26.9718 25.0183 26.9483 25.0359 26.9259 25.0547L24.6441 27C23.1984 26.2978 21.7059 24.8166 21.0037 23.3897L22.9519 21.0731C22.9706 21.0497 22.9884 21.0262 23.0053 21.0009C23.2803 20.5807 23.3268 20.0507 23.1291 19.5891V19.5778L21.1444 15.1537C20.8801 14.5439 20.246 14.1807 19.5862 14.2613C16.9583 14.6071 14.9952 16.8494 15 19.5C15 26.9438 21.0562 33 28.5 33C31.1506 33.0048 33.3929 31.0417 33.7388 28.4137C33.8195 27.7542 33.4567 27.1202 32.8472 26.8556ZM28.5 31.5C21.8756 31.4928 16.5072 26.1244 16.5 19.5C16.4927 17.6062 17.8919 16.0011 19.7691 15.75C19.7687 15.7537 19.7687 15.7575 19.7691 15.7613L21.7378 20.1675L19.8 22.4869C19.7803 22.5095 19.7625 22.5336 19.7466 22.5591C19.4596 22.9994 19.424 23.5578 19.6528 24.0309C20.5022 25.7681 22.2525 27.5053 24.0084 28.3538C24.4851 28.5804 25.0459 28.5398 25.485 28.2469C25.5091 28.2307 25.5322 28.2131 25.5544 28.1944L27.8334 26.25L32.2397 28.2234C32.2397 28.2234 32.2472 28.2234 32.25 28.2234C32.002 30.1033 30.3962 31.5064 28.5 31.5Z" fill="#1A170F"/>
</g>
<defs>
<clipPath id="clip0_117_1245">
<rect width="24" height="24" fill="white" transform="translate(12 12)"/>
</clipPath>
</defs>
</svg>
