<svg width="40" height="40" viewBox="0 0 40 40" fill="none" xmlns="http://www.w3.org/2000/svg">
<rect width="40" height="40" rx="8" fill="#F2F0E8"/>
<g clip-path="url(#clip0_117_1271)">
<path fill-rule="evenodd" clip-rule="evenodd" d="M20 15.5C17.5147 15.5 15.5 17.5147 15.5 20C15.5 22.4853 17.5147 24.5 20 24.5C22.4853 24.5 24.5 22.4853 24.5 20C24.4974 17.5158 22.4842 15.5026 20 15.5ZM20 23C18.3431 23 17 21.6569 17 20C17 18.3431 18.3431 17 20 17C21.6569 17 23 18.3431 23 20C23 21.6569 21.6569 23 20 23ZM28.25 20.2025C28.2537 20.0675 28.2537 19.9325 28.25 19.7975L29.6488 18.05C29.7975 17.8639 29.849 17.6183 29.7875 17.3881C29.5582 16.5262 29.2152 15.6986 28.7675 14.9272C28.6486 14.7225 28.4401 14.5859 28.205 14.5588L25.9813 14.3113C25.8888 14.2138 25.795 14.12 25.7 14.03L25.4375 11.8006C25.4101 11.5653 25.2732 11.3568 25.0681 11.2381C24.2964 10.7913 23.4689 10.4486 22.6072 10.2191C22.3769 10.1578 22.1312 10.2097 21.9453 10.3588L20.2025 11.75C20.0675 11.75 19.9325 11.75 19.7975 11.75L18.05 10.3541C17.8639 10.2053 17.6183 10.1538 17.3881 10.2153C16.5263 10.445 15.6988 10.788 14.9272 11.2353C14.7225 11.3542 14.5859 11.5627 14.5588 11.7978L14.3113 14.0253C14.2138 14.1184 14.12 14.2122 14.03 14.3066L11.8006 14.5625C11.5653 14.5899 11.3568 14.7268 11.2381 14.9319C10.7913 15.7036 10.4486 16.5311 10.2191 17.3928C10.1578 17.6231 10.2097 17.8688 10.3588 18.0547L11.75 19.7975C11.75 19.9325 11.75 20.0675 11.75 20.2025L10.3541 21.95C10.2053 22.1361 10.1538 22.3817 10.2153 22.6119C10.4446 23.4738 10.7876 24.3014 11.2353 25.0728C11.3542 25.2775 11.5627 25.4141 11.7978 25.4412L14.0216 25.6887C14.1147 25.7862 14.2084 25.88 14.3028 25.97L14.5625 28.1994C14.5899 28.4347 14.7268 28.6432 14.9319 28.7619C15.7036 29.2087 16.5311 29.5514 17.3928 29.7809C17.6231 29.8422 17.8688 29.7903 18.0547 29.6413L19.7975 28.25C19.9325 28.2537 20.0675 28.2537 20.2025 28.25L21.95 29.6488C22.1361 29.7975 22.3817 29.849 22.6119 29.7875C23.4738 29.5582 24.3014 29.2152 25.0728 28.7675C25.2775 28.6486 25.4141 28.4401 25.4412 28.205L25.6887 25.9813C25.7862 25.8888 25.88 25.795 25.97 25.7L28.1994 25.4375C28.4347 25.4101 28.6432 25.2732 28.7619 25.0681C29.2087 24.2964 29.5514 23.4689 29.7809 22.6072C29.8422 22.3769 29.7903 22.1312 29.6413 21.9453L28.25 20.2025ZM26.7406 19.5931C26.7566 19.8641 26.7566 20.1359 26.7406 20.4069C26.7295 20.5924 26.7876 20.7755 26.9037 20.9206L28.2341 22.5828C28.0814 23.0679 27.886 23.5385 27.65 23.9891L25.5312 24.2291C25.3467 24.2495 25.1764 24.3377 25.0531 24.4766C24.8727 24.6795 24.6805 24.8717 24.4775 25.0522C24.3387 25.1754 24.2505 25.3458 24.23 25.5303L23.9947 27.6472C23.5442 27.8833 23.0736 28.0787 22.5884 28.2313L20.9253 26.9009C20.7922 26.7946 20.6269 26.7367 20.4566 26.7369H20.4116C20.1405 26.7528 19.8688 26.7528 19.5978 26.7369C19.4123 26.7257 19.2292 26.7838 19.0841 26.9L17.4172 28.2313C16.9321 28.0786 16.4615 27.8831 16.0109 27.6472L15.7709 25.5312C15.7505 25.3467 15.6623 25.1764 15.5234 25.0531C15.3205 24.8727 15.1283 24.6805 14.9478 24.4775C14.8246 24.3387 14.6542 24.2505 14.4697 24.23L12.3528 23.9937C12.1167 23.5433 11.9213 23.0727 11.7687 22.5875L13.0991 20.9244C13.2152 20.7793 13.2734 20.5962 13.2622 20.4106C13.2463 20.1396 13.2463 19.8679 13.2622 19.5969C13.2734 19.4113 13.2152 19.2282 13.0991 19.0831L11.7687 17.4172C11.9214 16.9321 12.1169 16.4615 12.3528 16.0109L14.4688 15.7709C14.6533 15.7505 14.8236 15.6623 14.9469 15.5234C15.1273 15.3205 15.3195 15.1283 15.5225 14.9478C15.6619 14.8245 15.7504 14.6537 15.7709 14.4688L16.0063 12.3528C16.4567 12.1167 16.9273 11.9213 17.4125 11.7687L19.0756 13.0991C19.2207 13.2152 19.4038 13.2734 19.5894 13.2622C19.8604 13.2463 20.1321 13.2463 20.4031 13.2622C20.5887 13.2734 20.7718 13.2152 20.9169 13.0991L22.5828 11.7687C23.0679 11.9214 23.5385 12.1169 23.9891 12.3528L24.2291 14.4688C24.2495 14.6533 24.3377 14.8236 24.4766 14.9469C24.6795 15.1273 24.8717 15.3195 25.0522 15.5225C25.1754 15.6613 25.3458 15.7495 25.5303 15.77L27.6472 16.0053C27.8833 16.4558 28.0787 16.9264 28.2313 17.4116L26.9009 19.0747C26.7837 19.221 26.7255 19.406 26.7378 19.5931H26.7406Z" fill="#1A170F"/>
</g>
<defs>
<clipPath id="clip0_117_1271">
<rect width="24" height="24" fill="white" transform="translate(8 8)"/>
</clipPath>
</defs>
</svg>
